<svg id="svgQrWrapper" viewBox="0 0 300 300" xmlns="http://www.w3.org/2000/svg" xmlns:xlink="http://www.w3.org/1999/xlink" style="width: 100%; height: 100%; background-color: rgb(255, 255, 255);"><svg fill="#22071b" xmlns="http://www.w3.org/2000/svg" width="300" height="300" viewBox="0 0 300 300"><path d="M259.93.91H41.08a3.9,3.9,0,0,0-3.9,3.89V295a3.9,3.9,0,0,0,3.9,3.89H259.93a3.9,3.9,0,0,0,3.9-3.89V4.8A3.9,3.9,0,0,0,259.93.91ZM70.27,73.64H231.43v5.2H70.27ZM232,263.81a3.85,3.85,0,0,1-3.85,3.85H73.81A3.85,3.85,0,0,1,70,263.81V107.9A3.85,3.85,0,0,1,73.81,104H228.17A3.85,3.85,0,0,1,232,107.9Z"/><g transform="translate(76, 111)scale(0.5)" fill="none"><svg width="300" height="300"><style>.background-color{ fill: #fff; }.dot-color{ fill: #22071b; }.corners-square-color-0-0{ fill: #22071b; }.corners-dot-color-0-0{ fill: #22071b; }.corners-square-color-1-0{ fill: #22071b; }.corners-dot-color-1-0{ fill: #22071b; }.corners-square-color-0-1{ fill: #22071b; }.corners-dot-color-0-1{ fill: #22071b; }</style><defs/><g class="dot-color"><path d="M 5 85v 10h 10v -5a 5 5, 0, 0, 0, -5 -5" transform="rotate(-90,10,90)"/><path d="M 5 115v 5a 5 5, 0, 0, 0, 5 5h 5v -5a 5 5, 0, 0, 0, -5 -5" transform="rotate(90,10,120)"/><path d="M 5 165v 5a 5 5, 0, 0, 0, 5 5h 5v -5a 5 5, 0, 0, 0, -5 -5" transform="rotate(90,10,170)"/><path d="M 5 185v 10h 10v -5a 5 5, 0, 0, 0, -5 -5" transform="rotate(-90,10,190)"/><rect x="5" y="195" width="10" height="10" transform="rotate(0,10,200)"/><path d="M 15 85v 10h 10v -5a 5 5, 0, 0, 0, -5 -5" transform="rotate(90,20,90)"/><path d="M 15 125v 5a 5 5, 0, 0, 0, 5 5h 5v -5a 5 5, 0, 0, 0, -5 -5" transform="rotate(90,20,130)"/><path d="M 15 155v 10h 10v -5a 5 5, 0, 0, 0, -5 -5" transform="rotate(-90,20,160)"/><rect x="15" y="195" width="10" height="10" transform="rotate(0,20,200)"/><path d="M 25 95v 10h 10v -5a 5 5, 0, 0, 0, -5 -5" transform="rotate(-90,30,100)"/><rect x="25" y="155" width="10" height="10" transform="rotate(0,30,160)"/><path d="M 25 165v 10h 10v -5a 5 5, 0, 0, 0, -5 -5" transform="rotate(90,30,170)"/><rect x="25" y="195" width="10" height="10" transform="rotate(0,30,200)"/><rect x="25" y="205" width="10" height="10" transform="rotate(0,30,210)"/><path d="M 35 95v 10h 10v -5a 5 5, 0, 0, 0, -5 -5" transform="rotate(90,40,100)"/><path d="M 35 115v 10h 10v -5a 5 5, 0, 0, 0, -5 -5" transform="rotate(-90,40,120)"/><path d="M 35 125v 10h 10v -5a 5 5, 0, 0, 0, -5 -5" transform="rotate(90,40,130)"/><path d="M 35 145v 10h 10v -5a 5 5, 0, 0, 0, -5 -5" transform="rotate(-90,40,150)"/><path d="M 35 175v 5a 5 5, 0, 0, 0, 5 5h 5v -5a 5 5, 0, 0, 0, -5 -5" transform="rotate(90,40,180)"/><rect x="35" y="195" width="10" height="10" transform="rotate(0,40,200)"/><path d="M 35 205v 10h 10v -5a 5 5, 0, 0, 0, -5 -5" transform="rotate(90,40,210)"/><path d="M 45 105v 5a 5 5, 0, 0, 0, 5 5h 5v -5a 5 5, 0, 0, 0, -5 -5" transform="rotate(90,50,110)"/><rect x="45" y="145" width="10" height="10" transform="rotate(0,50,150)"/><rect x="45" y="155" width="10" height="10" transform="rotate(0,50,160)"/><rect x="45" y="165" width="10" height="10" transform="rotate(0,50,170)"/><path d="M 45 195v 10h 10v -5a 5 5, 0, 0, 0, -5 -5" transform="rotate(90,50,200)"/><path d="M 55 125v 10h 10v -5a 5 5, 0, 0, 0, -5 -5" transform="rotate(-90,60,130)"/><rect x="55" y="165" width="10" height="10" transform="rotate(0,60,170)"/><path d="M 55 185v 10h 10v -5a 5 5, 0, 0, 0, -5 -5" transform="rotate(-90,60,190)"/><path d="M 55 205v 10h 10v -5a 5 5, 0, 0, 0, -5 -5" transform="rotate(-90,60,210)"/><path d="M 65 85v 5a 5 5, 0, 0, 0, 5 5h 5v -5a 5 5, 0, 0, 0, -5 -5" transform="rotate(90,70,90)"/><path d="M 65 105v 5a 5 5, 0, 0, 0, 5 5h 5v -5a 5 5, 0, 0, 0, -5 -5" transform="rotate(90,70,110)"/><path d="M 65 125v 10h 10v -5a 5 5, 0, 0, 0, -5 -5" transform="rotate(90,70,130)"/><path d="M 65 145v 5a 5 5, 0, 0, 0, 5 5h 5v -5a 5 5, 0, 0, 0, -5 -5" transform="rotate(90,70,150)"/><rect x="65" y="165" width="10" height="10" transform="rotate(0,70,170)"/><path d="M 65 185v 10h 10v -5a 5 5, 0, 0, 0, -5 -5" transform="rotate(90,70,190)"/><rect x="65" y="205" width="10" height="10" transform="rotate(0,70,210)"/><path d="M 75 115v 5a 5 5, 0, 0, 0, 5 5h 5v -5a 5 5, 0, 0, 0, -5 -5" transform="rotate(90,80,120)"/><path d="M 75 135v 10h 10v -5a 5 5, 0, 0, 0, -5 -5" transform="rotate(-90,80,140)"/><path d="M 75 155v 10h 10v -5a 5 5, 0, 0, 0, -5 -5" transform="rotate(-90,80,160)"/><path d="M 75 165v 10h 10v -5a 5 5, 0, 0, 0, -5 -5" transform="rotate(90,80,170)"/><path d="M 75 205v 10h 10v -5a 5 5, 0, 0, 0, -5 -5" transform="rotate(90,80,210)"/><path d="M 85 15v 5a 5 5, 0, 0, 0, 5 5h 5v -5a 5 5, 0, 0, 0, -5 -5" transform="rotate(90,90,20)"/><path d="M 85 65v 10h 10v -5a 5 5, 0, 0, 0, -5 -5" transform="rotate(-90,90,70)"/><rect x="85" y="75" width="10" height="10" transform="rotate(0,90,80)"/><rect x="85" y="85" width="10" height="10" transform="rotate(0,90,90)"/><rect x="85" y="95" width="10" height="10" transform="rotate(0,90,100)"/><rect x="85" y="105" width="10" height="10" transform="rotate(0,90,110)"/><path d="M 85 125v 10h 10v -5a 5 5, 0, 0, 0, -5 -5" transform="rotate(-90,90,130)"/><path d="M 85 135v 10h 10v -5a 5 5, 0, 0, 0, -5 -5" transform="rotate(90,90,140)"/><rect x="85" y="155" width="10" height="10" transform="rotate(0,90,160)"/><path d="M 85 185v 5a 5 5, 0, 0, 0, 5 5h 5v -5a 5 5, 0, 0, 0, -5 -5" transform="rotate(90,90,190)"/><path d="M 85 215v 5a 5 5, 0, 0, 0, 5 5h 5v -5a 5 5, 0, 0, 0, -5 -5" transform="rotate(90,90,220)"/><path d="M 85 275v 10h 10v -5a 5 5, 0, 0, 0, -5 -5" transform="rotate(-90,90,280)"/><path d="M 85 285v 10h 10v -5a 5 5, 0, 0, 0, -5 -5" transform="rotate(90,90,290)"/><path d="M 95 25v 5a 5 5, 0, 0, 0, 5 5h 5v -5a 5 5, 0, 0, 0, -5 -5" transform="rotate(90,100,30)"/><path d="M 95 55v 10h 10v -5a 5 5, 0, 0, 0, -5 -5" transform="rotate(-90,100,60)"/><rect x="95" y="95" width="10" height="10" transform="rotate(0,100,100)"/><rect x="95" y="105" width="10" height="10" transform="rotate(0,100,110)"/><path d="M 95 145v 10h 10v -5a 5 5, 0, 0, 0, -5 -5" transform="rotate(-90,100,150)"/><rect x="95" y="155" width="10" height="10" transform="rotate(0,100,160)"/><path d="M 95 205v 10h 10v -5a 5 5, 0, 0, 0, -5 -5" transform="rotate(-90,100,210)"/><path d="M 95 225v 10h 10v -5a 5 5, 0, 0, 0, -5 -5" transform="rotate(-90,100,230)"/><rect x="95" y="235" width="10" height="10" transform="rotate(0,100,240)"/><rect x="95" y="245" width="10" height="10" transform="rotate(0,100,250)"/><rect x="95" y="255" width="10" height="10" transform="rotate(0,100,260)"/><path d="M 95 275v 10h 10v -5a 5 5, 0, 0, 0, -5 -5" transform="rotate(90,100,280)"/><path d="M 105 15v 10h 10v -5a 5 5, 0, 0, 0, -5 -5" transform="rotate(-90,110,20)"/><path d="M 105 35v 5a 5 5, 0, 0, 0, 5 5h 5v -5a 5 5, 0, 0, 0, -5 -5" transform="rotate(90,110,40)"/><rect x="105" y="55" width="10" height="10" transform="rotate(0,110,60)"/><path d="M 105 65v 10h 10v -5a 5 5, 0, 0, 0, -5 -5" transform="rotate(90,110,70)"/><path d="M 105 85v 10h 10v -5a 5 5, 0, 0, 0, -5 -5" transform="rotate(-90,110,90)"/><rect x="105" y="95" width="10" height="10" transform="rotate(0,110,100)"/><rect x="105" y="105" width="10" height="10" transform="rotate(0,110,110)"/><rect x="105" y="115" width="10" height="10" transform="rotate(0,110,120)"/><path d="M 105 135v 10h 10v -5a 5 5, 0, 0, 0, -5 -5" transform="rotate(-90,110,140)"/><rect x="105" y="145" width="10" height="10" transform="rotate(0,110,150)"/><path d="M 105 155v 10h 10v -5a 5 5, 0, 0, 0, -5 -5" transform="rotate(90,110,160)"/><path d="M 105 185v 5a 5 5, 0, 0, 0, 5 5h 5v -5a 5 5, 0, 0, 0, -5 -5" transform="rotate(90,110,190)"/><rect x="105" y="205" width="10" height="10" transform="rotate(0,110,210)"/><rect x="105" y="215" width="10" height="10" transform="rotate(0,110,220)"/><rect x="105" y="225" width="10" height="10" transform="rotate(0,110,230)"/><rect x="105" y="235" width="10" height="10" transform="rotate(0,110,240)"/><rect x="105" y="245" width="10" height="10" transform="rotate(0,110,250)"/><rect x="105" y="255" width="10" height="10" transform="rotate(0,110,260)"/><path d="M 105 265v 10h 10v -5a 5 5, 0, 0, 0, -5 -5" transform="rotate(90,110,270)"/><path d="M 115 5v 10h 10v -5a 5 5, 0, 0, 0, -5 -5" transform="rotate(-90,120,10)"/><path d="M 115 15v 10h 10v -5a 5 5, 0, 0, 0, -5 -5" transform="rotate(90,120,20)"/><path d="M 115 75v 10h 10v -5a 5 5, 0, 0, 0, -5 -5" transform="rotate(-90,120,80)"/><rect x="115" y="85" width="10" height="10" transform="rotate(0,120,90)"/><rect x="115" y="105" width="10" height="10" transform="rotate(0,120,110)"/><rect x="115" y="115" width="10" height="10" transform="rotate(0,120,120)"/><rect x="115" y="125" width="10" height="10" transform="rotate(0,120,130)"/><rect x="115" y="135" width="10" height="10" transform="rotate(0,120,140)"/><path d="M 115 195v 10h 10v -5a 5 5, 0, 0, 0, -5 -5" transform="rotate(-90,120,200)"/><rect x="115" y="205" width="10" height="10" transform="rotate(0,120,210)"/><rect x="115" y="225" width="10" height="10" transform="rotate(0,120,230)"/><rect x="115" y="235" width="10" height="10" transform="rotate(0,120,240)"/><rect x="115" y="245" width="10" height="10" transform="rotate(0,120,250)"/><rect x="115" y="255" width="10" height="10" transform="rotate(0,120,260)"/><path d="M 125 35v 5a 5 5, 0, 0, 0, 5 5h 5v -5a 5 5, 0, 0, 0, -5 -5" transform="rotate(90,130,40)"/><path d="M 125 55v 10h 10v -5a 5 5, 0, 0, 0, -5 -5" transform="rotate(-90,130,60)"/><path d="M 125 65v 10h 10v -5a 5 5, 0, 0, 0, -5 -5" transform="rotate(90,130,70)"/><rect x="125" y="85" width="10" height="10" transform="rotate(0,130,90)"/><rect x="125" y="95" width="10" height="10" transform="rotate(0,130,100)"/><rect x="125" y="105" width="10" height="10" transform="rotate(0,130,110)"/><path d="M 125 115v 10h 10v -5a 5 5, 0, 0, 0, -5 -5" transform="rotate(90,130,120)"/><rect x="125" y="135" width="10" height="10" transform="rotate(0,130,140)"/><rect x="125" y="145" width="10" height="10" transform="rotate(0,130,150)"/><rect x="125" y="205" width="10" height="10" transform="rotate(0,130,210)"/><rect x="125" y="215" width="10" height="10" transform="rotate(0,130,220)"/><rect x="125" y="225" width="10" height="10" transform="rotate(0,130,230)"/><rect x="125" y="255" width="10" height="10" transform="rotate(0,130,260)"/><path d="M 125 275v 5a 5 5, 0, 0, 0, 5 5h 5v -5a 5 5, 0, 0, 0, -5 -5" transform="rotate(90,130,280)"/><path d="M 135 5v 5a 5 5, 0, 0, 0, 5 5h 5v -5a 5 5, 0, 0, 0, -5 -5" transform="rotate(90,140,10)"/><path d="M 135 25v 10h 10v -5a 5 5, 0, 0, 0, -5 -5" transform="rotate(-90,140,30)"/><path d="M 135 55v 10h 10v -5a 5 5, 0, 0, 0, -5 -5" transform="rotate(90,140,60)"/><rect x="135" y="145" width="10" height="10" transform="rotate(0,140,150)"/><path d="M 135 165v 10h 10v -5a 5 5, 0, 0, 0, -5 -5" transform="rotate(-90,140,170)"/><rect x="135" y="175" width="10" height="10" transform="rotate(0,140,180)"/><path d="M 135 195v 10h 10v -5a 5 5, 0, 0, 0, -5 -5" transform="rotate(-90,140,200)"/><rect x="135" y="205" width="10" height="10" transform="rotate(0,140,210)"/><rect x="135" y="225" width="10" height="10" transform="rotate(0,140,230)"/><path d="M 135 245v 10h 10v -5a 5 5, 0, 0, 0, -5 -5" transform="rotate(-90,140,250)"/><path d="M 135 255v 10h 10v -5a 5 5, 0, 0, 0, -5 -5" transform="rotate(90,140,260)"/><path d="M 135 285v 5a 5 5, 0, 0, 0, 5 5h 5v -5a 5 5, 0, 0, 0, -5 -5" transform="rotate(90,140,290)"/><rect x="145" y="25" width="10" height="10" transform="rotate(0,150,30)"/><path d="M 145 45v 10h 10v -5a 5 5, 0, 0, 0, -5 -5" transform="rotate(-90,150,50)"/><path d="M 145 65v 10h 10v -5a 5 5, 0, 0, 0, -5 -5" transform="rotate(-90,150,70)"/><rect x="145" y="75" width="10" height="10" transform="rotate(0,150,80)"/><path d="M 145 85v 10h 10v -5a 5 5, 0, 0, 0, -5 -5" transform="rotate(90,150,90)"/><path d="M 145 115v 10h 10v -5a 5 5, 0, 0, 0, -5 -5" transform="rotate(-90,150,120)"/><rect x="145" y="125" width="10" height="10" transform="rotate(0,150,130)"/><rect x="145" y="145" width="10" height="10" transform="rotate(0,150,150)"/><rect x="145" y="155" width="10" height="10" transform="rotate(0,150,160)"/><rect x="145" y="175" width="10" height="10" transform="rotate(0,150,180)"/><rect x="145" y="205" width="10" height="10" transform="rotate(0,150,210)"/><rect x="145" y="215" width="10" height="10" transform="rotate(0,150,220)"/><rect x="145" y="225" width="10" height="10" transform="rotate(0,150,230)"/><path d="M 145 235v 10h 10v -5a 5 5, 0, 0, 0, -5 -5" transform="rotate(90,150,240)"/><path d="M 145 275v 10h 10v -5a 5 5, 0, 0, 0, -5 -5" transform="rotate(-90,150,280)"/><path d="M 155 5v 10h 10v -5a 5 5, 0, 0, 0, -5 -5" transform="rotate(-90,160,10)"/><rect x="155" y="15" width="10" height="10" transform="rotate(0,160,20)"/><rect x="155" y="25" width="10" height="10" transform="rotate(0,160,30)"/><rect x="155" y="35" width="10" height="10" transform="rotate(0,160,40)"/><path d="M 155 45v 10h 10v -5a 5 5, 0, 0, 0, -5 -5" transform="rotate(90,160,50)"/><rect x="155" y="75" width="10" height="10" transform="rotate(0,160,80)"/><path d="M 155 125v 10h 10v -5a 5 5, 0, 0, 0, -5 -5" transform="rotate(90,160,130)"/><rect x="155" y="145" width="10" height="10" transform="rotate(0,160,150)"/><rect x="155" y="155" width="10" height="10" transform="rotate(0,160,160)"/><rect x="155" y="165" width="10" height="10" transform="rotate(0,160,170)"/><rect x="155" y="175" width="10" height="10" transform="rotate(0,160,180)"/><path d="M 155 185v 10h 10v -5a 5 5, 0, 0, 0, -5 -5" transform="rotate(90,160,190)"/><path d="M 155 225v 10h 10v -5a 5 5, 0, 0, 0, -5 -5" transform="rotate(90,160,230)"/><path d="M 155 245v 10h 10v -5a 5 5, 0, 0, 0, -5 -5" transform="rotate(-90,160,250)"/><rect x="155" y="255" width="10" height="10" transform="rotate(0,160,260)"/><rect x="155" y="265" width="10" height="10" transform="rotate(0,160,270)"/><rect x="155" y="275" width="10" height="10" transform="rotate(0,160,280)"/><rect x="155" y="285" width="10" height="10" transform="rotate(0,160,290)"/><path d="M 165 15v 10h 10v -5a 5 5, 0, 0, 0, -5 -5" transform="rotate(90,170,20)"/><rect x="165" y="35" width="10" height="10" transform="rotate(0,170,40)"/><path d="M 165 55v 10h 10v -5a 5 5, 0, 0, 0, -5 -5" transform="rotate(-90,170,60)"/><rect x="165" y="65" width="10" height="10" transform="rotate(0,170,70)"/><rect x="165" y="75" width="10" height="10" transform="rotate(0,170,80)"/><rect x="165" y="85" width="10" height="10" transform="rotate(0,170,90)"/><path d="M 165 95v 10h 10v -5a 5 5, 0, 0, 0, -5 -5" transform="rotate(90,170,100)"/><path d="M 165 115v 5a 5 5, 0, 0, 0, 5 5h 5v -5a 5 5, 0, 0, 0, -5 -5" transform="rotate(90,170,120)"/><path d="M 165 145v 10h 10v -5a 5 5, 0, 0, 0, -5 -5" transform="rotate(90,170,150)"/><path d="M 165 165v 10h 10v -5a 5 5, 0, 0, 0, -5 -5" transform="rotate(90,170,170)"/><path d="M 165 195v 10h 10v -5a 5 5, 0, 0, 0, -5 -5" transform="rotate(-90,170,200)"/><rect x="165" y="255" width="10" height="10" transform="rotate(0,170,260)"/><path d="M 165 265v 10h 10v -5a 5 5, 0, 0, 0, -5 -5" transform="rotate(90,170,270)"/><rect x="165" y="285" width="10" height="10" transform="rotate(0,170,290)"/><path d="M 175 5v 10h 10v -5a 5 5, 0, 0, 0, -5 -5" transform="rotate(-90,180,10)"/><rect x="175" y="35" width="10" height="10" transform="rotate(0,180,40)"/><rect x="175" y="45" width="10" height="10" transform="rotate(0,180,50)"/><path d="M 175 85v 10h 10v -5a 5 5, 0, 0, 0, -5 -5" transform="rotate(90,180,90)"/><path d="M 175 105v 5a 5 5, 0, 0, 0, 5 5h 5v -5a 5 5, 0, 0, 0, -5 -5" transform="rotate(90,180,110)"/><path d="M 175 185v 10h 10v -5a 5 5, 0, 0, 0, -5 -5" transform="rotate(-90,180,190)"/><rect x="175" y="195" width="10" height="10" transform="rotate(0,180,200)"/><rect x="175" y="205" width="10" height="10" transform="rotate(0,180,210)"/><path d="M 175 235v 10h 10v -5a 5 5, 0, 0, 0, -5 -5" transform="rotate(-90,180,240)"/><rect x="175" y="245" width="10" height="10" transform="rotate(0,180,250)"/><rect x="175" y="285" width="10" height="10" transform="rotate(0,180,290)"/><rect x="185" y="5" width="10" height="10" transform="rotate(0,190,10)"/><rect x="185" y="15" width="10" height="10" transform="rotate(0,190,20)"/><path d="M 185 25v 10h 10v -5a 5 5, 0, 0, 0, -5 -5" transform="rotate(90,190,30)"/><rect x="185" y="45" width="10" height="10" transform="rotate(0,190,50)"/><rect x="185" y="55" width="10" height="10" transform="rotate(0,190,60)"/><path d="M 185 65v 10h 10v -5a 5 5, 0, 0, 0, -5 -5" transform="rotate(90,190,70)"/><path d="M 185 125v 10h 10v -5a 5 5, 0, 0, 0, -5 -5" transform="rotate(-90,190,130)"/><path d="M 185 145v 10h 10v -5a 5 5, 0, 0, 0, -5 -5" transform="rotate(-90,190,150)"/><path d="M 185 155v 10h 10v -5a 5 5, 0, 0, 0, -5 -5" transform="rotate(90,190,160)"/><rect x="185" y="185" width="10" height="10" transform="rotate(0,190,190)"/><rect x="185" y="195" width="10" height="10" transform="rotate(0,190,200)"/><rect x="185" y="205" width="10" height="10" transform="rotate(0,190,210)"/><rect x="185" y="235" width="10" height="10" transform="rotate(0,190,240)"/><path d="M 185 245v 10h 10v -5a 5 5, 0, 0, 0, -5 -5" transform="rotate(90,190,250)"/><rect x="185" y="285" width="10" height="10" transform="rotate(0,190,290)"/><rect x="195" y="5" width="10" height="10" transform="rotate(0,200,10)"/><path d="M 195 35v 10h 10v -5a 5 5, 0, 0, 0, -5 -5" transform="rotate(-90,200,40)"/><rect x="195" y="55" width="10" height="10" transform="rotate(0,200,60)"/><path d="M 195 95v 10h 10v -5a 5 5, 0, 0, 0, -5 -5" transform="rotate(-90,200,100)"/><rect x="195" y="105" width="10" height="10" transform="rotate(0,200,110)"/><rect x="195" y="115" width="10" height="10" transform="rotate(0,200,120)"/><rect x="195" y="125" width="10" height="10" transform="rotate(0,200,130)"/><path d="M 195 135v 10h 10v -5a 5 5, 0, 0, 0, -5 -5" transform="rotate(90,200,140)"/><rect x="195" y="185" width="10" height="10" transform="rotate(0,200,190)"/><rect x="195" y="205" width="10" height="10" transform="rotate(0,200,210)"/><rect x="195" y="215" width="10" height="10" transform="rotate(0,200,220)"/><rect x="195" y="225" width="10" height="10" transform="rotate(0,200,230)"/><path d="M 195 255v 10h 10v -5a 5 5, 0, 0, 0, -5 -5" transform="rotate(-90,200,260)"/><rect x="195" y="285" width="10" height="10" transform="rotate(0,200,290)"/><path d="M 205 5v 10h 10v -5a 5 5, 0, 0, 0, -5 -5" transform="rotate(90,210,10)"/><path d="M 205 25v 10h 10v -5a 5 5, 0, 0, 0, -5 -5" transform="rotate(-90,210,30)"/><rect x="205" y="35" width="10" height="10" transform="rotate(0,210,40)"/><rect x="205" y="45" width="10" height="10" transform="rotate(0,210,50)"/><rect x="205" y="55" width="10" height="10" transform="rotate(0,210,60)"/><rect x="205" y="65" width="10" height="10" transform="rotate(0,210,70)"/><rect x="205" y="75" width="10" height="10" transform="rotate(0,210,80)"/><rect x="205" y="85" width="10" height="10" transform="rotate(0,210,90)"/><rect x="205" y="95" width="10" height="10" transform="rotate(0,210,100)"/><path d="M 205 105v 10h 10v -5a 5 5, 0, 0, 0, -5 -5" transform="rotate(90,210,110)"/><rect x="205" y="125" width="10" height="10" transform="rotate(0,210,130)"/><path d="M 205 145v 10h 10v -5a 5 5, 0, 0, 0, -5 -5" transform="rotate(-90,210,150)"/><rect x="205" y="155" width="10" height="10" transform="rotate(0,210,160)"/><path d="M 205 175v 10h 10v -5a 5 5, 0, 0, 0, -5 -5" transform="rotate(-90,210,180)"/><rect x="205" y="185" width="10" height="10" transform="rotate(0,210,190)"/><rect x="205" y="205" width="10" height="10" transform="rotate(0,210,210)"/><rect x="205" y="215" width="10" height="10" transform="rotate(0,210,220)"/><rect x="205" y="225" width="10" height="10" transform="rotate(0,210,230)"/><rect x="205" y="235" width="10" height="10" transform="rotate(0,210,240)"/><rect x="205" y="245" width="10" height="10" transform="rotate(0,210,250)"/><rect x="205" y="255" width="10" height="10" transform="rotate(0,210,260)"/><rect x="205" y="265" width="10" height="10" transform="rotate(0,210,270)"/><rect x="205" y="275" width="10" height="10" transform="rotate(0,210,280)"/><path d="M 205 285v 10h 10v -5a 5 5, 0, 0, 0, -5 -5" transform="rotate(90,210,290)"/><rect x="215" y="85" width="10" height="10" transform="rotate(0,220,90)"/><rect x="215" y="125" width="10" height="10" transform="rotate(0,220,130)"/><rect x="215" y="135" width="10" height="10" transform="rotate(0,220,140)"/><rect x="215" y="145" width="10" height="10" transform="rotate(0,220,150)"/><rect x="215" y="155" width="10" height="10" transform="rotate(0,220,160)"/><rect x="215" y="185" width="10" height="10" transform="rotate(0,220,190)"/><rect x="215" y="205" width="10" height="10" transform="rotate(0,220,210)"/><rect x="215" y="245" width="10" height="10" transform="rotate(0,220,250)"/><rect x="215" y="255" width="10" height="10" transform="rotate(0,220,260)"/><path d="M 215 265v 10h 10v -5a 5 5, 0, 0, 0, -5 -5" transform="rotate(90,220,270)"/><rect x="225" y="85" width="10" height="10" transform="rotate(0,230,90)"/><rect x="225" y="95" width="10" height="10" transform="rotate(0,230,100)"/><path d="M 225 135v 10h 10v -5a 5 5, 0, 0, 0, -5 -5" transform="rotate(90,230,140)"/><rect x="225" y="155" width="10" height="10" transform="rotate(0,230,160)"/><path d="M 225 165v 10h 10v -5a 5 5, 0, 0, 0, -5 -5" transform="rotate(90,230,170)"/><rect x="225" y="185" width="10" height="10" transform="rotate(0,230,190)"/><rect x="225" y="195" width="10" height="10" transform="rotate(0,230,200)"/><rect x="225" y="205" width="10" height="10" transform="rotate(0,230,210)"/><path d="M 225 225v 5a 5 5, 0, 0, 0, 5 5h 5v -5a 5 5, 0, 0, 0, -5 -5" transform="rotate(90,230,230)"/><rect x="225" y="245" width="10" height="10" transform="rotate(0,230,250)"/><rect x="235" y="95" width="10" height="10" transform="rotate(0,240,100)"/><rect x="235" y="155" width="10" height="10" transform="rotate(0,240,160)"/><rect x="235" y="195" width="10" height="10" transform="rotate(0,240,200)"/><rect x="235" y="205" width="10" height="10" transform="rotate(0,240,210)"/><rect x="235" y="245" width="10" height="10" transform="rotate(0,240,250)"/><path d="M 235 255v 10h 10v -5a 5 5, 0, 0, 0, -5 -5" transform="rotate(90,240,260)"/><path d="M 235 275v 10h 10v -5a 5 5, 0, 0, 0, -5 -5" transform="rotate(-90,240,280)"/><path d="M 235 285v 10h 10v -5a 5 5, 0, 0, 0, -5 -5" transform="rotate(90,240,290)"/><rect x="245" y="95" width="10" height="10" transform="rotate(0,250,100)"/><rect x="245" y="105" width="10" height="10" transform="rotate(0,250,110)"/><path d="M 245 125v 10h 10v -5a 5 5, 0, 0, 0, -5 -5" transform="rotate(-90,250,130)"/><path d="M 245 145v 10h 10v -5a 5 5, 0, 0, 0, -5 -5" transform="rotate(-90,250,150)"/><rect x="245" y="155" width="10" height="10" transform="rotate(0,250,160)"/><rect x="245" y="165" width="10" height="10" transform="rotate(0,250,170)"/><rect x="245" y="175" width="10" height="10" transform="rotate(0,250,180)"/><rect x="245" y="185" width="10" height="10" transform="rotate(0,250,190)"/><rect x="245" y="195" width="10" height="10" transform="rotate(0,250,200)"/><rect x="245" y="205" width="10" height="10" transform="rotate(0,250,210)"/><rect x="245" y="215" width="10" height="10" transform="rotate(0,250,220)"/><rect x="245" y="225" width="10" height="10" transform="rotate(0,250,230)"/><rect x="245" y="235" width="10" height="10" transform="rotate(0,250,240)"/><path d="M 245 245v 10h 10v -5a 5 5, 0, 0, 0, -5 -5" transform="rotate(90,250,250)"/><path d="M 255 105v 10h 10v -5a 5 5, 0, 0, 0, -5 -5" transform="rotate(90,260,110)"/><rect x="255" y="125" width="10" height="10" transform="rotate(0,260,130)"/><rect x="255" y="165" width="10" height="10" transform="rotate(0,260,170)"/><rect x="255" y="175" width="10" height="10" transform="rotate(0,260,180)"/><rect x="255" y="195" width="10" height="10" transform="rotate(0,260,200)"/><rect x="255" y="205" width="10" height="10" transform="rotate(0,260,210)"/><rect x="255" y="235" width="10" height="10" transform="rotate(0,260,240)"/><path d="M 255 265v 10h 10v -5a 5 5, 0, 0, 0, -5 -5" transform="rotate(-90,260,270)"/><rect x="255" y="275" width="10" height="10" transform="rotate(0,260,280)"/><path d="M 265 115v 10h 10v -5a 5 5, 0, 0, 0, -5 -5" transform="rotate(-90,270,120)"/><rect x="265" y="125" width="10" height="10" transform="rotate(0,270,130)"/><rect x="265" y="135" width="10" height="10" transform="rotate(0,270,140)"/><path d="M 265 145v 10h 10v -5a 5 5, 0, 0, 0, -5 -5" transform="rotate(90,270,150)"/><path d="M 265 175v 10h 10v -5a 5 5, 0, 0, 0, -5 -5" transform="rotate(90,270,180)"/><rect x="265" y="195" width="10" height="10" transform="rotate(0,270,200)"/><rect x="265" y="205" width="10" height="10" transform="rotate(0,270,210)"/><rect x="265" y="215" width="10" height="10" transform="rotate(0,270,220)"/><rect x="265" y="225" width="10" height="10" transform="rotate(0,270,230)"/><rect x="265" y="235" width="10" height="10" transform="rotate(0,270,240)"/><rect x="265" y="245" width="10" height="10" transform="rotate(0,270,250)"/><rect x="265" y="265" width="10" height="10" transform="rotate(0,270,270)"/><path d="M 265 275v 10h 10v -5a 5 5, 0, 0, 0, -5 -5" transform="rotate(90,270,280)"/><path d="M 275 85v 5a 5 5, 0, 0, 0, 5 5h 5v -5a 5 5, 0, 0, 0, -5 -5" transform="rotate(90,280,90)"/><path d="M 275 125v 10h 10v -5a 5 5, 0, 0, 0, -5 -5" transform="rotate(90,280,130)"/><path d="M 275 155v 5a 5 5, 0, 0, 0, 5 5h 5v -5a 5 5, 0, 0, 0, -5 -5" transform="rotate(90,280,160)"/><path d="M 275 185v 10h 10v -5a 5 5, 0, 0, 0, -5 -5" transform="rotate(-90,280,190)"/><path d="M 275 195v 10h 10v -5a 5 5, 0, 0, 0, -5 -5" transform="rotate(90,280,200)"/><rect x="275" y="245" width="10" height="10" transform="rotate(0,280,250)"/><rect x="275" y="255" width="10" height="10" transform="rotate(0,280,260)"/><path d="M 275 265v 10h 10v -5a 5 5, 0, 0, 0, -5 -5" transform="rotate(90,280,270)"/><path d="M 275 285v 5a 5 5, 0, 0, 0, 5 5h 5v -5a 5 5, 0, 0, 0, -5 -5" transform="rotate(90,280,290)"/><path d="M 285 105v 10h 10v -5a 5 5, 0, 0, 0, -5 -5" transform="rotate(-90,290,110)"/><path d="M 285 115v 10h 10v -5a 5 5, 0, 0, 0, -5 -5" transform="rotate(90,290,120)"/><path d="M 285 145v 5a 5 5, 0, 0, 0, 5 5h 5v -5a 5 5, 0, 0, 0, -5 -5" transform="rotate(90,290,150)"/><path d="M 285 175v 5a 5 5, 0, 0, 0, 5 5h 5v -5a 5 5, 0, 0, 0, -5 -5" transform="rotate(90,290,180)"/><path d="M 285 225v 5a 5 5, 0, 0, 0, 5 5h 5v -5a 5 5, 0, 0, 0, -5 -5" transform="rotate(90,290,230)"/><path d="M 285 245v 10h 10v -5a 5 5, 0, 0, 0, -5 -5" transform="rotate(90,290,250)"/></g><g class="corners-square-color-0-0"><path clip-rule="evenodd" d="M 5 30v 20a 25 25, 0, 0, 0, 25 25h 20a 25 25, 0, 0, 0, 25 -25v -20a 25 25, 0, 0, 0, -25 -25h -20a 25 25, 0, 0, 0, -25 25M 30 15h 20a 15 15, 0, 0, 1, 15 15v 20a 15 15, 0, 0, 1, -15 15h -20a 15 15, 0, 0, 1, -15 -15v -20a 15 15, 0, 0, 1, 15 -15" transform="rotate(0,40,40)"/></g><g class="corners-dot-color-0-0"><circle cx="40" cy="40" r="15" transform="rotate(0,40,40)"/></g><g class="corners-square-color-1-0"><path clip-rule="evenodd" d="M 225 30v 20a 25 25, 0, 0, 0, 25 25h 20a 25 25, 0, 0, 0, 25 -25v -20a 25 25, 0, 0, 0, -25 -25h -20a 25 25, 0, 0, 0, -25 25M 250 15h 20a 15 15, 0, 0, 1, 15 15v 20a 15 15, 0, 0, 1, -15 15h -20a 15 15, 0, 0, 1, -15 -15v -20a 15 15, 0, 0, 1, 15 -15" transform="rotate(90,260,40)"/></g><g class="corners-dot-color-1-0"><circle cx="260" cy="40" r="15" transform="rotate(90,260,40)"/></g><g class="corners-square-color-0-1"><path clip-rule="evenodd" d="M 5 250v 20a 25 25, 0, 0, 0, 25 25h 20a 25 25, 0, 0, 0, 25 -25v -20a 25 25, 0, 0, 0, -25 -25h -20a 25 25, 0, 0, 0, -25 25M 30 235h 20a 15 15, 0, 0, 1, 15 15v 20a 15 15, 0, 0, 1, -15 15h -20a 15 15, 0, 0, 1, -15 -15v -20a 15 15, 0, 0, 1, 15 -15" transform="rotate(-90,40,260)"/></g><g class="corners-dot-color-0-1"><circle cx="40" cy="260" r="15" transform="rotate(-90,40,260)"/></g></svg></g></svg><g transform="translate(150,59)"><style>
               .small463{
                  fill:#ffffff;
                  font-size:40px;
                  font-family: Tahoma, sans-serif;
                  }</style><text x="0" y="-4" text-anchor="middle" class="small463">SCAN ME</text></g></svg>